<?xml version="1.0" standalone="no"?>
<!DOCTYPE svg PUBLIC "-//W3C//DTD SVG 20010904//EN"
 "http://www.w3.org/TR/2001/REC-SVG-20010904/DTD/svg10.dtd">
<svg version="1.0" xmlns="http://www.w3.org/2000/svg"
 width="644.000000pt" height="644.000000pt" viewBox="0 0 644.000000 644.000000"
 preserveAspectRatio="xMidYMid meet">
<metadata>
Created by potrace 1.11, written by Peter Selinger 2001-2013
</metadata>
<g transform="translate(0.000000,644.000000) scale(0.100000,-0.100000)"
fill="#000000" stroke="none">
<path d="M3210 6404 c-59 -157 -215 -495 -249 -539 -5 -5 -25 -41 -46 -80 -71
-132 -98 -180 -105 -190 -8 -10 -42 -71 -93 -165 -16 -30 -45 -82 -64 -115
-60 -104 -187 -359 -198 -395 -4 -14 -11 -30 -16 -35 -28 -37 -144 -399 -164
-515 -3 -19 -7 -36 -9 -37 -2 -2 -24 5 -50 16 -25 11 -48 21 -51 21 -6 1 -11
2 -115 41 -83 30 -99 35 -150 45 -14 3 -41 9 -60 14 -81 21 -340 30 -416 15
-16 -3 -42 -8 -59 -10 -92 -12 -221 -53 -325 -102 -67 -32 -197 -117 -227
-148 -11 -12 -32 -31 -45 -41 -13 -10 -45 -46 -72 -79 -42 -51 -53 -60 -81
-60 -46 0 -52 -10 -31 -49 17 -31 17 -36 2 -65 -9 -17 -20 -31 -24 -31 -13 0
-66 -115 -88 -190 -34 -120 -42 -190 -39 -324 2 -77 6 -152 9 -166 3 -14 11
-50 17 -80 6 -30 19 -80 30 -110 11 -30 22 -62 24 -71 7 -33 125 -251 144
-269 4 -3 18 -23 33 -45 24 -36 50 -66 132 -155 74 -80 213 -191 321 -256 102
-61 208 -102 190 -74 -19 31 -25 222 -8 280 7 25 13 47 13 50 4 57 94 205 161
265 69 61 172 125 201 125 8 0 22 16 31 35 12 25 23 35 39 35 26 -1 152 -70
128 -70 -34 -1 192 -127 236 -132 33 -4 106 -46 100 -57 -3 -4 18 -19 47 -34
29 -15 88 -48 132 -72 44 -25 90 -49 102 -55 12 -5 27 -18 32 -29 13 -24 -15
-58 -227 -268 l-153 -153 39 -57 c22 -32 67 -82 100 -112 56 -50 60 -56 56
-89 -3 -20 -12 -44 -21 -54 -22 -24 -87 -60 -143 -78 -45 -15 -172 -19 -220
-8 -89 21 -196 101 -261 195 -16 23 -29 46 -29 52 0 6 -4 11 -9 11 -4 0 -17
26 -27 58 -20 63 -21 68 -28 130 -2 24 -7 46 -10 49 -7 7 -63 -114 -83 -180
-31 -105 -34 -133 -34 -297 0 -110 4 -155 27 -284 16 -84 103 -279 145 -324
10 -12 19 -25 19 -30 0 -18 146 -159 205 -199 96 -66 212 -111 330 -130 53 -9
210 -9 260 0 48 8 151 40 161 50 15 15 35 6 46 -20 7 -16 23 -45 35 -65 13
-21 21 -38 18 -38 -3 0 6 -17 20 -37 14 -21 25 -41 25 -45 0 -8 106 -176 155
-246 72 -102 157 -202 245 -290 l45 -44 80 84 c44 46 91 99 105 117 14 19 32
42 42 51 40 44 183 268 180 282 -1 5 3 8 8 8 6 0 10 5 10 10 0 6 25 52 55 102
30 50 55 94 55 98 0 4 9 15 20 25 14 12 23 15 32 8 16 -12 133 -51 168 -55 14
-2 30 -6 35 -9 20 -10 170 -1 260 15 130 25 318 136 421 248 62 68 144 178
144 193 0 2 15 36 34 77 33 72 71 211 81 299 6 56 7 226 0 259 -3 14 -8 41
-11 60 -12 69 -46 176 -77 242 -34 72 -43 81 -43 46 -3 -160 -99 -346 -219
-423 -105 -68 -220 -87 -335 -55 -55 15 -132 53 -149 74 -8 9 -18 16 -23 16
-5 0 -20 8 -33 18 l-24 19 81 73 c77 71 158 166 158 186 0 5 -85 95 -190 199
-126 126 -190 197 -190 211 0 16 22 34 89 74 117 69 133 78 151 86 8 4 36 24
62 45 26 22 54 39 62 39 9 0 16 4 16 9 0 5 15 13 32 17 41 9 152 56 156 66 2
4 9 8 16 8 19 0 77 58 63 63 -26 10 60 35 110 32 53 -3 97 -20 89 -34 -3 -4
12 -13 32 -21 20 -7 49 -21 64 -31 14 -11 29 -19 32 -19 11 0 37 -22 99 -84
70 -70 119 -166 140 -271 13 -64 15 -221 4 -288 -2 -15 -2 -27 2 -27 31 0 296
153 338 196 8 8 18 14 22 14 20 0 257 249 270 283 2 6 14 21 25 34 12 12 30
40 41 60 11 21 23 40 27 43 6 5 51 99 83 175 19 46 63 211 72 270 9 60 9 314
0 365 -4 25 -9 55 -11 67 -12 66 -65 200 -104 261 -33 53 -33 54 -18 93 l16
39 -31 -5 c-28 -5 -36 -1 -68 36 -197 230 -437 364 -721 405 -112 16 -387 4
-468 -20 -9 -3 -28 -7 -42 -10 -60 -12 -88 -21 -238 -75 -63 -23 -117 -41
-122 -41 -4 0 -10 17 -13 38 -3 20 -9 50 -12 66 -3 16 -7 33 -8 39 -1 5 -19
60 -40 121 -21 61 -39 116 -41 121 -3 12 -9 28 -43 115 -28 73 -170 366 -231
478 -22 39 -37 72 -34 72 4 0 2 4 -4 8 -37 26 -488 869 -516 967 -6 22 -17 49
-24 59 -13 18 -14 18 -24 -10z"/>
</g>
</svg>
